<mxfile host="app.diagrams.net" agent="Mozilla/5.0 (Windows NT 10.0; Win64; x64) AppleWebKit/537.36 (KHTML, like Gecko) Chrome/141.0.0.0 Safari/537.36" version="28.2.7">
  <diagram name="PÃ¡gina-1" id="J5F_gPoIrCMwB1YH9aX1">
    <mxGraphModel dx="5580" dy="2590" grid="1" gridSize="10" guides="1" tooltips="1" connect="1" arrows="1" fold="1" page="1" pageScale="1" pageWidth="827" pageHeight="1169" math="0" shadow="0">
      <root>
        <mxCell id="0" />
        <mxCell id="1" parent="0" />
        <mxCell id="ktYiNVIVtSDniCfWTDiv-1" value="" style="shape=image;verticalLabelPosition=bottom;labelBackgroundColor=default;verticalAlign=top;aspect=fixed;imageAspect=0;image=data:image/png,iVBORw0KGgoAAAANSUhEUgAABkAAAANLCAMAAAAuLaHxAAAAIGNIUk0AAHomAACAhAAA+gAAAIDoAAB1MAAA6mAAADqYAAAXcJy6UTwAAAEvUExURf///+7v8Kuusl1jajpBSkxSW46SmMXHyvb299HT1Z2hpdzd3+bn6G5zevv8/Lm7v36Dierq6t/f3/T09JOTk1lZWbW1tcTExBgYGKWlpYGBgW5ubvv7+wAAAC4uLkRERNLS0pmcoYeMkT1ETWpvdjtCS2VqcVxhaTxDTFddZUpQWEZNVdHS1W9zejtCSn+EiV9kbPT29pOXm0JJUUlPWKeqrpGUmYSIjrS2utDS1K2wtJueo72/wnV6gamrsEhOV4uPlEdNVmdtdHh9g3uAhrGytm5yd3d5e6GjpzY4OzExMj9CRSEhIo6Pkra4vFFYX4yPld/g4uPk5b/BxGxxeEBHT66xtHt/hYiOk0NJUj5FTZygpO3u75ufpFVbY6mssHyBiHZ6ga6wtWhtdI2RllpYsh4AAAABYktHRACIBR1IAAAACXBIWXMAABibAAAYmwFJdYOUAAAAB3RJTUUH6QoTDi8eFw4oPgAAaXlJREFUeNrtvQe748qWnsfTzT59u/t0QM5h5o5kWQ6ybDmMbWlmNLJHjpprhbFlW3L6/7/BqFWFRHKzSWxsVJF43+fpJolQwF5Yqz5UPhwAAAAAAAAAAAAAAAAAAAAAAAAAAAAAAAAAAAAAAAAAAAAAAAAAAAAAAAAAAAAAAAAAAAAAAAAAAAAAAAAAAAAAAAAAAAAAAAAAAAAAAAAAAAAAAAAAAAAAAAAAAAAAAAAAAAAAAAAAAAAAAAAAAAAAAAAAAAAAAAAAAHp+eff+CAA/58OvH39nO14BXOKT7aAEeCQ+245YAHd4dzy+//zlNwD4KR9//XA8frIdswCu8Mvx+PWb7ZsAeBS+fT0ef7N9EwCO8P34Hv0AuJlv76nEAjD8IBoA7uHd8b3tWwBwBGp0Ae7it+PR9i0AOAIVugB38Y2YATAQDAD3QcwAGAgGgPsgZgAMBAPAfRAzAAaCAeA+iBkAA8EAcB/EDICBYNgDnh/YvoUngpgBMBAMl/DCKNZZbpJ6K6abZS9eMc6LpLzt5qIoiaOXbytIwig0aQVZ0v1fppX/s0TTZMW/87khZgAMBMM5SV0pGpVHN1U42+dnP8uKr1FVL+zI5IpVcS3x/tJ51VQvJnQ4xKkklcrBfhVJ6uHhJ4RV8xamfEqIGQADwXBG974exW1YS95bxvOdWZUtSlTzUr5fdDl+Hnf/p1cKIf2lk/gQxC9WSYVdUlGsJLA99AKS1j8v28S3FX+AmAEYIBjOyCTTPQTVpXqfNxEQv5MPpQiddF0pKtx0aa9LSpWc/EjESAsIrAoxA2AgGM6oK90c0KoqozCSRoSkqFUThRfVVR1pfQlryam7bWGQp3V8KLMm1ZsObdikxeydvoxVAkZAyqwu2tkVc/2lrSrT9NI0phXj/NJeGI2JB3mdTUsjUa8YZa30RgSku0P5z8vTprvN7t5Cuc0oKuOi1tdJIv1H+3mdtybtNmpoGLkAMQNgIBjOyKt6/BHJa79uFIlUUaGS9gevkC91IHm0apOoYr1J5eatPmzSqpBJw0QhAlLm6dhIoQh62TgcYmnnyPT1pPbs/NK6jaNRubwXyfd8bFGvqv57orTDn/zXyG220XCbXbJyI+ov1MWbttFNMXIr9bATZhAzAAaC4Qyvy52HDlEiIEnVeGVYqa+mHilShyS1ymq7nL1py1hl+KUnbe5dFh96ZTKpAusUJfL9SLd9h1WdlUlUDQ0T/lSx5Og0D7xctODs0kFaFd6hrUVe6i6DDzpxiib3Pvs6FZDuFspM36Y+u+rvyjeJd2l3BZIkVXv9fieFkFOIGQADwXCO9MIytTciIJG8k/uqakfn4p04qNzfV2/yvs5jGylwJKIFrZQdirHNotF1VLnK003bSjlmzfFJQ0Xdi1R+4dIHT/4P1c5Y38aktaadFHv0zU0EpJW0C7nNRg4wd1WYxHN9dluH5upqe2r7cTgHMQNgIBguEauqnLo9GAHp3tsLU1zQuXhmGi3qLuf29Uu/yd6HEoDnp6OAGLFIdKFAlzfyYbdptfdNZdXB1GhJHdTZpYXAb9TOXFc2dfrU72knWqRKMFMBkcvqKjl9z9O7yrRQhoeTW/bG6jUwEDMABoLhMkGcSo4rGW4wFkl0Lq6bOxTZJQEJ4sjsNInpkoL6HIZ89E0NB2meUB9eFEX12NqhWzzOLn0o4yI1ShPpZhJdHDFJvVyFJdIyF5ByuDtJfFLp1t/y4edjEHcHMQNgIBhewpN3cJ3hHpLINJnrXDxSHaKE5JKAdAc3RZZPBSQwn1IpZM4Nxyv1zSGNViRzQHTh0qoerC6yeC4gvRYdxgKD1Gb9RED6uzoXkOGeagTkFGIGwEAwnBL0842EOo/uVaDLuMOxCmvIsS8ISFulgZx/sQqrPW9VGCq7PGmoGHtSHfo7GS9tGjySy1VYY49g3e7yEwG5WoXVmjuiCusEYgbAQDCcUqbmvb7uSyBlHKq38VC3SehGaMlWgywpLwiIaT2vzxrRC9OI3qrLxONo8i453e2rEOkxIpBk3oVLG+2S8R6x1iKTouCrXlZqWyi3+BMBMXd11oieD7cc04h+BjEDYCAYzsiqNPbKpJCh3JLhNmqguC+C4uvhGY3qxpvJ1COXSiC1d/CLsQ1k3o03r+o4aNPpQPdGDbjww1QnnlRp6HlNdfHSQZV6By+UNpCyVt1up914pfosDf3ctMD8REAuduNtx268QW5Go8AEYgbAQDCcUaZDA7nJcD39W7ox1dPRfCrrvdAGYiZjnEw9MhtIqEfrTXPmsphcUmrLTDP5hUtHJnG119c/ikmVlxo0Mib/EwE5G0hYDxc2t5z+dBrG/UHMABgIhnPKLEqrRs+Mq6cy8cMmzXUtUxA3air1MoyqJlMZt9e3dUuDgvzojkmLtp8dxKSZNnGpDz3EUVqH7eyaSRilUdgLQVvU/fXOLq3KRlHsmSZ4L0/Dk0aKViWV6aT6WUzMf/3fo++5qsq4qbP5VCZFfzU1n0p94wzz+4KYATAQDPvlypzwcAViBsBAMOwXBGQZxAyAgWDYLwjIMogZAAPBsF8QkGUQMwAGggHgPogZAAPBAHAfxAyAgWAAuA9iBsBAMADcBzEDYCAYAO6DmAEwEAwA90HMABgIBoD7IGYADEcAuBMEBECwHYoAjwcCAiAQDAD3QcwAGAgGgPsgZgAMBAPAfRAzAAaCAeA+iBkAA8EAcB/EDICBYAC4D2IGwEAwANwHMQNgIBgA7oOYATAQDAD3QcwAGAgGgPsgZgAMBAPAfRAzAAaCAeA+iBkAA8EAcB/EDICBYAC4D2IGwEAwANwHMQNgIBgA7oOYATAQDAD3QcwAGAgGgPsgZgAMBAPAfRAzAAaCAeA+iBkAA8EAcB/EDICBYAC4D2IGwEAwANwHMQNgIBgA7oOYATAQDAD3QcwAGAgGgPsgZgAMBAPAfRAzAAaCAeA+iBkAA8EAcB/EDICBYAC4D2IGwEAwANwHMQNgIBgA7oOYATAQDAD3QcwAGAgGgPsgZgAMBAPAfRAzAAaCAeA+iBkAA8EAcB/EDICBYAC4D2IGwEAwANwHMQNgIBgA7oOYATAQDAD3QcwAGAgGgPsgZgAMBAPAfRAzAIYXguG3zx+O8IZ8/f7qTIhn9Ma89IwQEADD5WD4bjt298Dn1z05ntEGXHxGCAiA4WIwfD4e33/8Dd6OL5/fH4/fX/PgeEZvzYvPCAEBMFwKht+Oxx/fbN/Y0/PjVfkQz2gLLj8jBATAcCkYvh/f276tHfDt/WsqsXhGW3D5GSEgAIZLwfD1tdXzcAsfjx+Wn8wz2oSLzwgBATBcCobj8Yvt29oDvx2PyyuheEabcPEZISAAhssCQoBswLfX2JlntAnfiA+AKxAg9kBA3If4ALgCAWIPBMR9iA+AKxAg9kBA3If4ALgCAWIPBMR9iA+AKxAg9kBA3If4ALgCAWIPBMR9iA+AKxAg9kBA3If4ALgCAWIPBMR9iA+AKxAg9kBA3If4ALgCAWIPBMR9iA+AKxAg9kBA3If4ALgCAWIPBMR9iA+AKxAg9kBA3If4ALgCAWIPBMR9iA+AKxAg9kBA3If4ALgCAWIPBMR9iA+AKxAg9kBA3If4ALgCAWIPBMR9iA+AKxAg9kBA3If4ALgCAWIPBMR9iA+AKxAg9kBA3If4ALgCAWIPBMR9iA+AKxAg9kBA3If4ALgCAWIPBMR9iA+AKxAg9kBA3If4ALgCAWIPBMR9iA+AKxAg9kBA3If4ALgCAWIPBMR9iA+AKxAg9kBA3If4ALgCAWIPBMR9iA+AKxAg9kBA3If4ALgCAWIPBMR9iA+AKxAg9kBA3If4ALgCAWIPBMR9iA+AKxAg9kBA3If4ALgCAWIPBMR9iA+AKxAg9kBA3If4ALgCAWIPBMR9iA+AKxAg9kBA3If4ALgCAWIPBMR9iA+AKxAg9kBA3If4ALgCAWIPBMR9iA+AKxAg9kBA3If4ALgCAWIPBMR9iA+AKxAg9kBA3If4ALgCAWIPBMR9iA+AK2wUIL5f3nG0F0ZRcPc1Aj+4vNm7fsBIFmXz3/fc9P08kID4/huc7P3cKcrLjuNlPztxLRAQgCtsFCBVdUcOFFQd9+fdWZVd3hxdP2By3XSmMGHVrG2HGY8iIF7TPY80b5eeX1WXt0c/d4qwqpLzrWVaxRv97QgIwBWsCchLucpBco3YO9zNqwUkP8mWvDQ5vCUPIiCJkg+lIeG1o/zBzGe8QkDSqiou3VLztmXDEQQE4AouCki07P3y1QKSbfVaa7jDzh//6NO3pee+Eq+q6qw8BFlVXVP1NxGQtirS6v7KzBVBQACusKWA+Jnf/WvV76TLjrJMsoYyNu/5SRYE3b8sq6s8k21+NimJJPGQk5Rxe5K+3x046EMbT/OccwEJ4kQOCPRVuivKZi/OdIbW3WfZyr0mfepvkondYefvx+Pxj6casl0mFvX2K/ovQWaeSve0OkPJjyzvZCbTDzHWD3awmhEQL8lGwUi6RzAISJL0CSeHNpsU+/Iq6YuFynmC/rkn2VaqgoAAXGFLAcmqUNWE1LHKlRTdtiBMVf26yg+6gofaJntUXuWl6ksq+VOQqR+1/p6rr+GkEiNRyTah6EOZ1N2Poh12ngqIX0v65fDS7EsGV8pmqXHv7rP7kfVnSur5a1qR77D9CygBEQ353ds9o8t4Q8Gj1D0b/EKZT3L5qErksfjqASvUpkw/2InVtH2bwb6HMlPGzrWAyKNNRRG6BxJVk5JMWVVlW9X9w1NOU5sLv8HjuAgCAnCFbQUkrfIub07HEkiXeadhJwiqtVrlD8VYAun0o8k6xemOlmb1vPuuqr5bpR7FNJ/JVSWLypKUPtTqyHRS3XIqIN0bdRJJhf5UQLr8rQ7jLpML1HHdDXUvvPpMlaWpBNdvD7lfQI6/P/7Jx9+90TO6THtSNZUZY+dimjTN81Q9vb4Eoh5inqnSRWfPVD8SEZCoqvO40M+lNiaVNwh1gnolCORJdKmMhk7UtVP9KJXzpErY9TNBQAAcYFsBkfrstGoPfb1GJG2kgfSq6bIjXarQ2UPSqDwqkHOKSr38doWETOU+qjHXG1tVAp1NZfKRVHUwpCucCIgvihRHJwLiF9IuW6t7y0zacmZSqab0Muxv7o1t/wK9gHT8rePf7jRks0wsm7diK2OX0rDu908sMJl/pJ9drezUiuAaqyn7Brl5Lll/clnIR1413Y5AHlj3JGbNUNIYluvGe/14hwsjIAAOsK2ASLfYXN5edb2GKSnIpqjv5jPNHsq0kgoS3VrhSSZT6oP6FvFYJEEdlA2b27Hh9kRAPP3yrJhVYfWXzob71GcWOgMt7+qIfKvtF/NjQwGZ9Tzojd1oY+f6ezwRkEw/0Mg8k3bWiC7WNCb1q8mjTUTF5yqtlanVVzRvH4daXxgBAXCAbQVEMhedo0uu0uUhkaJWm4Zcof8SxEUk9RxeNXbF6fITc0r/Zty/I0velVaN7B7POK3CqlU1iVxgLiBBkke6zqXPM+XMxrwUN9Xqg9c6Ibj1UGdKIKH5Geon1g52HQTE1x/aavJMtH3LNox0DVS/U70bBOZBBepV4qQnV6yFXJdYe1WXG0BAAJzAuoD0nAuItLo2dffDN6+9+uyePrPpyyKhzqx6/OGE/kDTyi7t8ZF3IiChOqduzgSkTyh/CwF5vDaQ3tjJRPIvCEhqrJapUqXYV55bWutWDf/QHzsU/1L5MbtW3T/K4jAKWTx713hzEBCAK9gWkFEZTgUkqVLViTeavKYq+l45I71CNLqFpD3ZPRZfUtMQXraFNNtPBaS7ROiZW5wJSDSUQFYfJfKIvbCyeQnkJQHpdabpSyBlWoX+YFLZKbWCkxJIcCIg3vgyUKoz9XPPKYEAOINdARkaN1TV94mA1LKrNBXlknurkQV9hhYMteWJqSIxbSC6yWIy5q2vfDKV6XJiolLxdHNKqM4v9EH1mYCY0Q/Bm7SBPN44kNiUGKZNERcEJNcVTuXQBhLq3dI2Yna200dr2kCmAhL2v8QT+nGMKW0gAM5gTUAkI+gyJdUHJ5vnCvpLJAISmq46aqxBaQ4rgkOZVUNRo9vcbQmKauzh49eTaaxUUaY7I2mkkV437+rmWskFvVpncKo9uD1vA/Gl21GXen3TH/pa27+A3ZHoqRmJHvTGLvWPqYB4+l3AbBqtZnphJcbsE5M28qhCGdqR1JN+1Ya+wKjnJOuueHbhDUBAAK5gTUDyLi/xVQfeKupyEpXPnFdhFbkZLFCqw8zYD9VuUtTVRCFU9Xq3MzXDPKq6qGblBWnzqPRQA5VUE2qxUepUN1VjqrCi0IwlmQnIQaWsEmw3sf0W595JIm1R/VxYarBnkeofUwHpCnppMY4uDydWM1VYTdYd0g+tSeWB+XoAZ6M2lCcC0g4TakolZFbVZxfeAAQE4ArWBERN8drlBYE0lasm7bNGdFGP0PxQA5vTQnIUmRxWvY4OeLkazW6Sl9bwZjrsr8yr4SJmiLQeyF7KwLRSamVipR5ReC4gBz/Xs0FtYvstzr0XL5rOxqvmDtBTB8wFxG9UGWR4iPJM9IwjYl+ZIKAxTfK+Uoy4f7RR/7xmApKP3b9U8aS7iBp7WPiTC28AAgJwhS3XAzHrcfQLdAR6qYfAb/Uxw/IQw5e2nfyYrCoRtKf5R9BOlvvw27OZkvx2sq5E0I4tJGqzSdlrS51Gn9CwkkjQrm2PV9vZ5nogZTt/UKO9Zmt8lO38ZC8JDmVvUvV59miHvTrx4SmqByEq1T/YG1YSWQkEBOAKBIg9HkhA7POzqZTfCOID4AoEiD0QkDtAQADcgwCxBwJyBwgIgHsQIPZAQO7gpwvavw3EB8AVCBB7ICDuQ3wAXIEAsQcC4j7EB8AVCBB7ICDuQ3wAXIEAsQcC4j7EB8AVCBB7ICDuQ3wAXIEAsQcC4j7EB8AVCBB7ICDuQ3wAXIEAsQcC4j7EB8AVCBB7ICDuQ3wAXIEAsQcC4j7EB8AVCBB7ICDuQ3wAXIEAsQcC4j7EB8AVCBB7ICDuQ3wAXIEAsQcC4j7EB8AVCBB7ICDuQ3wAXIEAsQcC4j7EB8AVCBB7ICDuQ3wAXIEAsQcC4j7EB8AVCBB7ICDuQ3wAXIEAsQcC4j7EB8AVCBB7ICDuQ3wAXIEAsQcC4j7EB8AVCBB7ICDuQ3wAXIEAsQcC4j7EB8AVCBB7ICDuQ3wAXIEAsQcC4j7EB8AVCBB7ICDuQ3wAXIEAsQcC4j7EB8AVCBB7ICDuQ3wAXIEAsQcC4j7EB8AVCBB7ICDuQ3wAXIEAsQcC4j7EB8AVCBB7ICDuQ3wAXIEAsQcC4j7EB8AVCBB7ICDuQ3wAXIEAsQcC4j7EB8AVCBB7ICDuQ3wAXIEAsQcC4j7EB8AVCBB7ICDuQ3wAXIEAsQcC4j7EB8AVCBB7ICDuQ3wAXIEAsQcC4j7EB8AVCBBrfENAnOcb8QFwBQLEGl+Ox2+LT+YZbcLFZ4TtAQyXguHD8aPt29oDn49fl5/MM9qEi88IAQEwXAqGz8f3y1+N4VbeH78vP5lntAkXnxECAmC4FAy/HY8/bN/X0/Ptx6vyIZ7RBrzwjBAQAMPFYPh+PL7//IU33Dfj228f3x+Pn1+TBM/ojXn5GSEgAIbLwfD5CG/OKyqweEYbcfEZISAAhheC4bfvX23H7nPz4fOrMyGe0Rvz0jNCQAAMLwfDt9/gzVip6umxnlHna4/Ei88IAQEwEAywFf/O37F9B+tAzAAYCAbYCgQE4MkgGGArEBCAJ4NggK1AQACeDIIBtgIBAXgyCAbYCgQE4MkgGGArEBCAJ4NggK1AQACeDIIBtgIBAXgyCAbYCgQE4MkgGGArEBCAJ4NggK1AQACeDIIBtgIBAXgyCAbYCgQE4MkgGGArEBCAJ4NggK1AQACeDIIBtgIBAXgyCAbYCgQE4MkgGGArEBCAJ4NggK1AQACeDIIBtgIBAXgyCAbYCgQE4MkgGGArEBCAJ4NggK1AQACeDIIBtgIBAXgyCAbYCgQE4MkgGGArEBCAJ4NggK1AQACeDIIBtuJJBOQbMQNgIBhgK55EQL4cj99s3wOAG3w4frR9C7ATnkRA3h2/2r4FAEf4fHxv+xZgJzyJgLw/vrN9CwCO8Ol4/Gz7HmAfPIeAfD4ev9i+BwBX6OLh63faQeDteQIB+fbp6/H4w/ZdALjDr0cAuBlK7AAj3z59fm87JgEehF8/2Q5YANf45TeAt+bf/Tu27+D10IEXAMACT9AGAgAANkBAAABgEQgIAAAsAgEBAIBFICAAALAIBAQAABaBgAAAwCIQEAAAWAQCAgAAi0BAAABgEQgIAAAsAgEBAIBFICAAALAIBAQAABaBgAAAwCIQEAAAWAQCAgAAi/i7CAgAACzh+O/ZvgMAAHhE/v3j8Rfb9wAAAA/If/Afvv9u+x4AAODx+HvH/+jd8aPtuwAAgMfi7//H/8nx7x0OH48/Pn2zfS8Ab8kvH3/9cASANfkH/6kKri+/rp/y+3dfECVwhc/HD79+/A224D87/t3//L/4U7iX//J4/Ppf/dcPxd/v4+vb6l70/cfx+Ml2tgEgfMQXN+M7tl7Eb8fPtm/BMT5/oH8XuMAv5Gmbga0X8gH9OOXHe9t3ANDxDkfcjHdfbd/BY/LlSJX/Kb9jiAm4wI93tu9gP3zF1ov4/KvtO3AQhpiACxy/2L6D/XD8zfYdPCY/yCvP+ZVqPXAAMrXtwNbLQEAu8P2H7TsAIFPbEmy9DATkAggIuACZ2nZg62UgIBdAQMAFyNS2A1svAwG5AAICLkCmth3YehkIyAUQEHABMrXtwNbLQEAugICAC5CpbQe2XgYCcgEEBFyATG07sPUyEJALICDgAmRq24Gtl4GAXAABARcgU9sObL0MBOQCCAi4AJnadmDrZSAgF0BAwAXI1LYDWy8DAbkAAgIuQKa2Hdh6GQjIBRAQcAEyte3A1stAQC6AgIALkKltB7ZeBgJyAQQEXIBMbTuw9TIQkAsgIOACZGrbga2XgYBcAAEBFyBT2w5svQwE5AIICLgAmdp2YOtlICAXQEDABcjUtgNbLwMBuQACAi5AprYd2HoZCMgFEBBwATK17cDWy0BALoCAgAuQqW0Htl4GAnIBBARcgExtO7D1MhCQCyAg4AJkatuBrZeBgFwAAQEXIFPbDmy9DATkAggIuACZ2nZg62UgIBdAQMAFyNS2A1svAwG5AAICLkCmth3YehkIyAUQEHABMrXtwNbLQEAugICAC5CpbQe2XgYCcgEEBFyATG07sPUyEJALICDgAmRq24Gtl4GAXAABARcgU9sObL0MBOQCCAi4AJnadmDrZSAgF0BAwAXI1LYDWy8DAbkAAgIuQKa2Hdh6GQjIBRAQcAEyte3A1stAQC6AgIBlfvmt4/in6n/bt/L0YOtl/E5Z7B/+I/X/72zfizOIUf7RP8QoYJXPx55/YPtWnh5svYwvg92OX2zfizNgFHCB0Q//yPatPD3YeiF/1tvtz2zfiUNgFHCAb7zHbAa2XsgfIbznYBRwgT83bvgXtm9kB2DrZXxBeM/BKOACn4wb/rntG9kB2Hohf4HwnoNRwAH6epVPtm9kB2DrhfwRlTXnYBRwAVOv8s32fewBbL2ML1TWnINRwAV0vcof276NXYCtl/EN4T0Ho4ALfKNWZTOw9UL+nKajczAKuMAf8x6zGdh6GZ8Q3nMwCrjAJ2pVNgNbL+MbwnsORgEX6Pzw9x9t38ROwNYL+WOE9xyMAi7Q+SHzsW0Etl7Gp9//nsqaUzAKuMCn4z+2fQu7AVsv4xuVNedgFHCBb0dqVbYCWy/kT/7E9h04CEYBF/iVWpXNwNbL+IjwnoNR4E6+fP6xPn/5Bmn+lO+/PKElrdh6F5b8J/9kg4tsack1rLaJUZyyGryKXz4cn4gPFlsAsSSWtGlJrAbbo0YRfP3+HHx+3/mdtVcXLIklbVoSq8H2/PJcD+q3D8cPlhoEsORaYMklYDWwwMcne0xdGFlqBMSSa4Ell4DVwAK/Hn+1fQtr/0E/bF0YS651YSy55CJYDTbn6WT+0/Fo58JYci2w5BKwGljgePzN9i2sy2/2sj0suQ5YcglYDSyA260FllwLLLkErAYWwO3WAkuuBZZcAlYDC+B2a4El1wJLLgGrgQVwu7XAkmuBJZeA1cACuN1aYMm1wJJLwGpgAdxuLbDkWmDJJWA1sAButxZYci2w5BKwGlgAt1sLLLkWWHIJWA0sgNutBZZcCyy5BKwGFsDt1gJLrgWWXAJWAwvgdmuBJdcCSy4Bq4EFcLu1wJJrgSWXgNXAArjdWmDJtcCSS8BqYAHcbi2w5FpgySVgNbAAbrcWWHItsOQSsBpYALdbCyy5FlhyCVgNLIDbrQWWXAssuQSsBhbA7dYCS64FllwCVgML4HZrgSXXAksuAauBBXC7tcCSa4Ell4DVwAK43VpgybXAkkvAamCBhW5X+r43/PB9v/9aV9n0MM8v5+cFfnAtWe/67lt4tGwPS56BJZeA1cACC93Or6qqnHw3X5OqmR0WVf78vGzulqdE13ffwqNle1jyDCy5BKwGFniF28Xmez66XVR5s8P25HZYci2w5BKwGljgFW5X669lNbqdP/e6XbkdllwLLLkErAYWWOx2UWpcKqmK3u2CPBxqPoM8b7XbJZls9DN/dLsyy08cMgjl+Kw/2fvpPVzm8bI9LIklsZolq8ErWe52eZXL16ZKtNu1kXqDKcSdfFUarhpxO/PyIh6n3c7Te5MxvUBvaWS3X6gfdbvoD3rAbA9LYkmsZsdq8EqWu11bparxzauqUtyuKwvXSZZWVfeWUnYfYVJ3znPJ7bq9aab2jn7X/cjFbTNJsUmSpkoX9eN4wGwPS2JJrGbHavBKlrtd5yrKbcLu9UXcrpb3mDKqCuVddSD7LrpdqPdmVdonl2gfy8TtIv1C1Jj3ojt5wGwPS2JJrGbHavBKXuF2mfT0UxWoyu3KSnuXlIKN53iX3a6pQrUhqIaGuUL5qmzpdg8JRUvu7BGzPSyJJbGaFavBK3mF23VO4nXOUR/E7XzT/haokm9tyrTpRbfr3a0eSr6R6UmoRi91CUSKZugRchePmO1hSSyJ1axYDV7JK9yuc5awe+PIercznQGVM6aDY112O10nOnb1a6rWfGbSr9Cw5M4eMdvDklgSq1mxGryS17hdW9WluJByEM84k68LvpOibaRfT/LB7VLzvjIWfE1BuTQF36Ud/xQPme1hSSyJ1WxYDV7Ja9yuey0JpcpT3jDMgNZQvb/keiKERBxLH6NdKtNta1JP2vbvL9JUZ7aIV4rP+m15500JD5ntYUksidVsWA1eyavcLusKp+3BuF1WpVlZZvJS0r285MFB9e/z5Y0mke7hvdsNe4s+ue4Fp9DHd7vjKk3KMqwerO8GlsSSNi2J1cACr3K7wMyCIG5XRlWVppX2JeWQdZVKzanqGq7GJY3Dj0LZWzVj93B9vD7m0OiE6sd6b8GSWNKmJbEaWOBVbtfXkJpGMi+v0n4GhCBPq8LXrW5BXFdROxm/egi615v5DAhqS9Ga3VnngXW4rP70MbM9LIklsZoFq8ErWXcZmrK8/P0CwbVzD+Xi1QQeLdt7ASy5FnuxJFYDC7CO2VpgybXAkkvAamAB3G4tsORaYMklYDWwAG63FlhyLbDkErAaWAC3WwssuRZYcglYDSyA260FllwLLLkErAYWwO3WAkuuBZZcAlYDC+B2a4El1wJLLgGrgQVwu7XAkmuBJZeA1cACi9zO8++bm6AszsaiBnkcxIvWmfkJD5zteX5vJv9OA2vKLPT86DUToM54LEuWvnDzsLXSv26oZY/gMq4LiKdtd8kIL59UD1O4Cxdi/JUgII/AIreLKv+u4/N+hYFpElV1vnUFHivbmxJUem3qw3R67HsIZaai1fK9x7Jkv/hE3d56vHp9eflVaNkjuIzrAhIZ2+WnxjhbyGNUlERP0zuQrx7NCMgjsImAXHg7icIgLtYL0ZHHyvamxFXVL+y2UECKMskfLNu7xFIBybKwqW5dg0ILyMuevC8BybOsqM5nzT0TkHFDfWLnMqcEskc2EZAteaxsb0pTZf202GvmXot5LEuahViDQs8KeMPxCEhPNCyCflIEuSIg/tp6cQYC8ggsFxA/87tCRD9nZ/fuG7aH/nsR6zXNMt8Lo0R96h1xkfSV1EGYj/XVSdGvqVy2eb5s/RnDY2V7E7yqPqRmYZ4+9/LzbLBFmQ3G87MiHIzkD4Yv2zDKxjqGon3dH/RYluxX8m6r1Jgr7//+IClCX9tNPoIs0QLiZ3X37p3IIXkR91mil4fe8Ai88RF07p4tUpUHEZDuFUaHoV/E+m82opyE2jhJpop5gTGLdkaVDWRdjItRDxL8vd0PfjjGu6NWg1eyXECySioMhjXJKlOFH4RpZUrD3Rt1qlaW0XM7q3mhO/QiZbn6GrXqu1q6pjs3n6Sz3OseLNubEMq61LIWnMm9ErGvrhrwxGC63VJ/TWV7Eg3fy6YankcgNq3j/UhxLyDadoHYqDYr6ylUjb2ZY1wKH+q/TPZ0PzzxTG18Xyyam0cQjY8g7I9205IrCIhecTCRVT+K4GAEJNDGyfu2En8wiy82zSXGzboi4eh35rx26V0hII/AawSkqrO20KtZ1lXohzrzqpVnhbKcWXdIGvqBDtxS7xCPUu3FWZLqII26g1q9zFl3cu5ly6LU8FjZ3gS1ZE9iWiJ1lHYGTkIty2Vnq7wN++2h34mLMpIc04VzI/rRxL5eR06Fet5GC5eCe0hL9gKSqM/OXHWmcjlffC32imqyhsUgIIHfVLHvKf0oEmXdoHfNuhofQWdS9QhUOkpcsvvv7VEEpFYSmomnpeJeYsvOrxIdt15nZNU7rTVmUfZSMZ53Ma4FpJn4Xd69ILbp8rdBBOQReJWAqBezRjldIouO+XmivorHxMqfMrNWslmBpg7ke6cyRRWpXLFQ+aWva14l8Fv57oXJ/ffU81jZ3ohUvZSmCVhyL72idFCraAwnxhMzq+VFD/0xZZ22qn5Q2TFXh+slrJU5X1FT/ViW1AJSamE1K3Pn+rsqfLShfy4gfdYZhFIsrpX25lWjzFiIBevJI8jl9SgOF1RiPYaAeKFyl0CXGQJxHREQ7Vd6iUGt0mIPtXBhPmQD2p6JDni9RrokVIYxAvLMvEZApB+fKEWXmzWmtqQwDcHqZ2begCVwI/ND7TDdjUQ7zEHdS6Ov3LZ5RfWV4rGyvRHJ+A9FvzCcr4xj1LcZFow7jFVSyfSYSU1VoZ5HaMpw9ZL35Z7HsmRniiiKTHVeNPiXGKrvnvqSgGhKsZYxWW9eT5/X6HRctuSrBKSJolRXL7emECwvhmObeacWfZFERalYLVbvPCYb0PbMTfCn6uS6Sl/VDwEBeQReIyBjNKoqk1Q3hDemGl9hDtGf6VgbGlSTxuKoqiOF1L2odKJkPzX3A51+Zr7vh7oJuJpUZ0kuOOsTFCR5rSujk1nney+LTC19ZAyf39gl6QksOYwD0S8ojfiU+JlalFv75ssC0ur2vEydKpohmWSfmXqmWqyql/WSdl9AqqG5IjPhKIUvLSD+4Fd6g2/6KQT6/S86DEaNTPBLcUV1S29CGtGfm5UERLe81f5MJ+YCMskDvf7NphYB6cn6dNL9VWElgxWU+ZSt+sgMtICMgRhINIfTYwTVJFxHuQ7kxGwq9mJJXYWV6Y4cgzGVz5XaN70rAqJ8sCki7abju01szFvq6jHpmLBkpL/7AqLbirLDwXQsMIIhf7fqPFAXkxJIP4ZQKlxnAlKb4A+lsKY7fix+hUFAHoG1BER1cpSh5dHEY2YCMi2aGDGRitb8pGag7NJJl/9Bj5XtDRTDi19xGKqwZE+irFFPjJfrTGx6jNgtrVR1c6ueR2FsGu2qCksbQffFmL+CqE5ZhXQcVL/iUwHpXqlVr+hQF5T72i+/b57Tj0ChssQF9VgPISDdn6/EN56OMFc27YJUVQlk0xKIFtlW/TopgWjrNL3ftfXyZjgE5BFYR0CCRLqJK2cJtQMGRXwiIIX2NK+I+8ZJ3XCe6egsVY/xsvUOJniX8ljZXk/Qx5nuRlDp9qBWbcm1IkhRwi8SVXwzDZXjMVk4vAoWk0bksqp2U5YzWqr7bRhzBSrnk/9UfcpQv99MBaQ9DDUv6aSpLjx7BF6i+yhU997ZowiIFt++3afVLyl9aeIwKYH0TZgS6jMBGf2us5uvbFcub4ZDQB6BdQREq0as3KcLujxQbW7FiYD4siNo1I7ulS4rVZVAJn7bbe9eVVLV31dVYSfDnFALeKxsryceGjPkDVgUNK/qRN6d/cF4Irzyeu014zFauX2xWiJVD51NI1+NaHjN/ESPZUkjIKX0EOp+xOWh8y/pf6DERDRANe52bleNApJLn0HJBINQ6nBUJ2lxzdNH0MhLT/G8JRAjvpFyHeVerdYLaWdT1QLagOrPD/vwTU4EJJj4nVaiIF38MoiAPALrCIga46G6cagXk7j7bPTohZmAqHhWO2rTSzLtfkamA29V63mgJJ16UV/7nsfK9nqaoeJPtFgPYGi0XUK9WYzXaHs1ndzqY6LumFQbrJFnoDvwqzE29e0zCz6BJSfjQDw91rLWPbK6LCyNzJAjPQQzHwXEUw3j6o05Vd03xIyRuGbdnD4CTx9ULWgVfhABKUUe/HT8m8WmKiaV82nBVT5VahuZwcITARn8TleJVU3zijFdCMgjsFIbiJenfTes7m2l7qJSlYDnAnIoczWwUAegGrLaT7/mqx4w+mRP9S8qXtMN67GyPUMw1hRLDZWpw/O7F2QzY4SMLa/FeGWslMTrj1E/jO3UM2h1xKqW4+gV9VcPZ0l/7JjRD6dO9WQmbZH2X9UwkSabNKIfOlum6pAu0wuNm6qGjsKLzh6BSmdZN6wHERAzjCNQ0ypGYgrd5KH8Ktf2KkNdJaXMEppe5lMBkeA3fleqnm3N4mEgCMhDsN4yNN4L36dkk9nayvLyCTsdB3KZ4PKPYGq7Sa8F78VzF/DolrzLp8rpIS9Y/WW//gmuC8gZ3skb3IW/O3jxJW9ycPmQHfLhDrZdxyxOXztO8Kc8erZ3P9FrBntcYX+WfCseTkCcAAF5BLZ1Oz9+zcCEm9hdtqcmdHqTyd93Z8k3AwFZAgLyCGzrdlWVtm98id1le6+be/IKu7Pkm4GALAEBeQQ2LoG8dQXWDrO9YMXFu2fszpJvBgKyBATkEcDt1gJLrgWWXAJWAwvgdmuBJdcCSy4Bq4EFcLu1wJJrgSWXgNXAArjdWmDJtcCSS8BqYAHcbi2w5FpgySVgNbAAbrcWWHItsOQSsBpYALdbCyy5FlhyCVgNLIDbrQWWXAssuQSsBhbA7dYCS64FllwCVgML4HZrgSXXAksuAauBBXC7tcCSa4Ell4DVwAK43VpgybXAkkvAamAB3G4tsORaYMklYDWwAG63FlhyLbDkErAaWAC3WwssuRZYcglYDSyA260FllwLLLkErAYWwO3WAkuuBZZcAlYDCzyj232zcmEsuRZYcglYDSxwPH6yfQvr8u743s6FseRaYMklYDWwwK/HH7ZvYV2+Ht/ZuTCWXAssuQSsBhb4dDx+tH0Pa/L9ePxi58pYci2w5BKwGtjg6/H47suz1DX+8uvx+NXWxbHkWmDJJWA1sMC3zu+Oxx9PwQf1l1gLISyJJW1aEquBDX73ThzvOXj/HUtiSbfYzJJYDezw7dP3N+d4fPtrfPoFS2LJPVsSq8GTwqigtcCSa4Ell4DVwALff9i+g2cBS64FllwCVgML4HZrgSXXAksuAauBBXC7tcCSa4Ell4DVwAK43VpgybXAkkvAamAB3G4tsORaYMklYDWwAG63FlhyLbDkErAaWAC3WwssuRZYcglYDSyA260FllwLLLkErAYWwO3WAkuuBZZcAlYDCzyj2wVW0npGS9oBSy4Bq4EF3HG7NoyqOkpenU5ZpN7VA5IovDkxL23KGw91x5KPDpZcAlYDCzjjdmGlqb1XJlQ21XUVyqro5sSSqrm1DOKMJR8eLLkErAYWcMXtok47ojZuqjty9xco2+v77xGQQ3trAcQZSz4+WHIJWA0s4Ijb+VVVSNGjrarX12Jd5y4BuR1HLPkEYMklYDWwgCNuVw+ZelGl8tIfZFET6uqjMEraPI30xjobNnphEyWmhFB2e3L9I4pEipKwS6A1Ww5xVGXmCr2AtHnT5K3ZGITd+aa4UcZ5HWW++upFcmzZ5n3qrlvyCcCSS8BqYAE33M6rKt98LbNM5f9tKi0ijfoeVUUqVVtmYxTIxlB+6RZzX+9J1R6dlmlTkfy/qrLu64mA5PqAQmQh0efX6kfZ6D2qJNSVjNSWyV7HLfkMYMklYDWwgDW3S6Yv9DqfnhCkVZr5eSp5fdQpQ956h6DLw7uNVb+xDtURqkuVyuFzP66r5mAEJKmqsPVCLQMq84/9vjVcC0gnKWmc1JWc36Wszk+rQlJOM68tqirobyyr6tbrLpg7acmnA0suAauBBSy5ncq502z4mUnOPyGvavXhiwB0Wbc32diKQpiNsWzLddmjk522F5BCUo8k06/0icPFIpGcvJQfSieiqg7kcql/KONIlWDKSqWlBUSSPcT51dYZAngtsOQSsBpYwJLb1VInNPSQ7ZslIiFRWXZmjstU9q73VlU83SiaE4iO1KZw4OnD/OE6hZw6b5iXi7VGlAJJVJdDzPmaUq6iBaQ2FV0uWvIJwZJLwGpgATtu1+pWhqEI0pdAhs1V1YiW1KpSybR/B/3GVMlF3ygucjFTCCMgQZJHuulkJilGQLIq1b+aLh1vfsDBi4tI30dfhVWlRfwTDSGA1wJLLgGrgQXsuF2ilWJoU+jbQPwOVfjwq4Fo0IqLG0Uc5gKgf0hLeFq/LCCm21fefZk3wXjSZF6no4BIjVuVZlfHFBLAa4Ell4DVwAKW3C6dV2EF0uAgtOprWVWxr/GmJZDzjS+VQGLd7p7dUAIJTwQoUq3zpb7AIC1+VtOIvhFYcglYzVWCNsv8K/UXpe/fntjP6BI7ec/1/JsHQy/AktvF0oN2/B0Nzdy691M6zaxHrQgvbfQnbSB9N94y1ZKSvyQgp20gOjGvFM2QJ1DPBET37r32JHYZwEbQf+qhXnHHDDVvZEnPX3OWTefYpf89AIEeFZBmLwbJWR/UGaV/1+RO+fieaxw+qvyzJNdTLFtuV8bhNJw7GzYqxy8TrSu5LiCUTeSPWmF6YZV14Z8IyNgLK9FbAq0Z5YttIC/0wupKP4m+SjK2gfiNjG1sJ0Umhyxplb5OsfmJR9azfnCH6z78RpYch5I+Jbv0P/eREWZNXV2pv7guIP59E2eoyxmpMg5/LiDXL3gfrridGvdXh3laDVKQhn4Sya8+8jtVUBsbGas+E5DzcSB51bReWL8oINIwnszHgWR6HEgnLX6r7qQXkLKuotaLa6qwztD9GmbVkRfxTufIvObDCMgSdul/ziM5U+f7Xl696H5rCkhb1cNksrsSkEOcVuPY82HQuTSNDJHfb/QPJwJyPhLdtLiHLwrIyyPRM/21GauwTKexlEb0U0xBrxPi26fIFxCQtdml/zlP3uca5VAI9+NJbuQl5aShNR7nbi1bGWld+nFXvPfLQ+B7hyDRHuxnJoXADw5BPB2jUFRhrPO3wG+6N2F/FJDSN72AuiQr01JSDkktxR23C+I8isLBGGUWNUUsf2U4rBKi5sIqktlGM/PV2VxYQdw0oe/J2h/mGEO/Hsh8Lqzucv2PruQSZYFcwMyF5cVFHbaHq7hjyQ3ppTkeo2Ni6kA9KmkhGdofWv30eh9WNVllkpltJnz+m/92jBV1vjnV05XBQdvPYaBaB4OkHS/XTi7uTXYcynjS7aILmjbo0+4CVV99drwfP15zyS79z3XKsdzhT6dYMuPKfFV4L1otILHuYCp7vMK8TPv9K3P32qvebA/9m2+h33WzYjZ/eXc9L9DVAfo9uBoERH43KnbGMRSFfst+zV+I263FLi3ZC4hpc5IiYj/dpSq1V7Vn5g1Q/hoUsr8dfVhNNVCZbnND+PxVFYXVUEIpTGeLUrraleLzWuq7yCjkenq/BFZtRoSqlss01HoSZN1l68QISDyJ4C7c9NWlBFvrZrkylx9vPSn02uzS/1zHP+1402Xjdd4vWiFrWHR+Kr6emD2N3pPK9zLI8s7Bu4jK1GFNJPpRh41uUpGN0/XxpAFX6k6k32iUZb2A5GosWyotzJmqTsuknr9q8vp1CoLbrcUuLdkLiO7UprSgqCc1gU2qPHwQkK48r0ZopuXgw/KCVXcFxGn4/FUfK0Ji2lcSFYulSj0aqjabLkHzQw38kQhRGb8aytMoDfH0vVW1Ok/uQUmTOkxWmlTBq66ubiOqKz0RdHfjRdHP0vk47NL/nKPM6nTSPSjpRwsYglRm0xBfVo6ZB4cgl5elQM/q15op+FTFV2ZmU5JIyMwksq3uXxr3I5zzWVlZDUoYqgOmbSCdh2dd+MSTCZr0iAkVEfVhObjdWuzCkifxMQiI9Jor06oIxMVDKZNEfnf8REB0MSWWGDI+7JslKAM9d40On7+qJJ0eHXNdbOR6WktVkjH9KKRMouc760JDdavLJOOPpFuYp4eR1lKaUP0lMpn3uRMMdVuZ3H4q919LcPrSTaKUmc/0H/FI7ML/nEcKyKNonK89JP5WmqDQOXdtYkF+iD4YCdA1u4OAmNaKfviBJxtnBRy9NTBDFKYCUpi5PqSxsm90KfVM5j/rAXMV3G4tdmHJk/g4yNjOVvV2KyQPF3fOlbNmw49BQBL9hm/CohcQU1Xkm/RaEZDp278kZ8aapsOY0jEA9Vteamq68iRQKtHqPVWp+2Yf5O6yoX+4+TQ11H0H7UzdlKd/lG85+uot2IX/uU4wrgQhXFq8rvTjwoxe0+8oeV9dW/pJUZlXrSbp2+l6AWnOUzhNPtMR0ej+olMB6YomMmJLJgec9GAJfLUK7Csa0nG7tdiDJU/jYxgHIqEQdmUOheTD/StPMqnCSqs6HsKimnwIQ/j81XxuZs+8bNVy/UQuYebTlAAszyYj6CRFjpJ5m3tZ8yp9TtHfVqBOMsJRy/F6Y1diyR6s+kqxB/9znuxkjqb2tLNhGTZDT9J++o1ELzqURWPrdjY2ww0CYrTCm6RwKiB11WQdkX5LmgrIOA1UOkbdNKml4HZrsQdLnsbHMA7EvPEMeNPBO4OASFdtPST3VECm4fNXJ2EhFbt9r+qek/k0Z+XwbDwsHoMs1bN0ap3pVUd+5OPx3ca2vj5w2FH24H/Oc/qGNXVL6Y6omsCLrI2m7zy6PSNUbXhqjzh1mTVmWMGpgEQ6hUsC4o1+nBxOBURPRBtFkxJIoxoeMw8BcYI9WPJCCUT38Ej1IpF176SeWYmlX2xyFhaqleJUQKbhcyogqkY46Nf36q8QXhWQtD8sGcv+RkDi/i+ZCkg63vhBdfSu+taRx2EP/uc+p3W845xMsXqtMn15u6LCZAKmQhrRh74gfb9fNXdSciYg/jDHxrmASIctRW1WxptWYU1GQfdTxOqwLREQJ9iFJc/bQJTvBboIEk6rnvrGhmwqIAfdDzc8E5BZ+JwKSOfhgR4dNZl083A2n2Y87GinbYt9FZZ/WoVVDgKSnfSVOcymFHoQduF/zhNkdTrtGJX1r1tBqqIj1+6nyw+FaUSXbrzmPUd7qR5NVda6waLRCZklk3QKySUBGTp+aO+eN6JrF2/bcuhcbKqAMwTECXZhydP4ML6Xy/t/bBq/vUT/kF3NKCCeHoIrcWN82B/KAJPwORWQbm9s5mfoX+jis8kI9EtX99qWy/T+oiYyftAzIZxdbEQ/mMu28tfJ8XpEYbHidA+bsAv/ezxU//GsDOJafKyVfiR+08+WEfl6MGFf2aUWzs76BkRPemR5/ZAPHRS6J4qqZj0TkHbofFJKAOS6K7oIiGdmVJG3t1J3l9dN7iappeB2a7FLSxrfK2XxepkzTD6Ue6p5yFppDOwFJBTf10s9mmku/TELH8PnTEDaqh7LM3F5WqzRaxhLl/gyl2t0GpXIh55KLc1K6U+c9b2LVd/7+DAISKdyairPslERpWWwbCiBwAp4zbRZQqKiVusUmcF9nWdXjbhho+dclIrWINXjkkyfKuWdk6Y8SeGCgBRjDYB87YIqbfqBhKGZ01EOUSMIQxWDVdSP1FoKbrcWu7Rk73s6R2/1HGK6alXPxlBN8no1ClAN75POvMqHs7ENZBo+ZwJyGNdiabTTi3TMp0Mzw3qlLKECMI2qcZ60NFVBKw35lUSsDqRhEiJzvHljq5rop9NDOscu/e8RCGX97kgHip47ITHTi6gXmTTXQTDskQFRkcyM4PWn5KNWtMU4wUN2Mo3JUIubyFuQurLXT2WiZ4nIh5lSujMTCQQa0d1gl5bsfU8XQcwMIv3aH0HYhO1hUlgQTekC5nDofXicR24SPucCEo4jQ2QuocZU7k4FRPe9MjOk6RlPVHlIoQYRNp45XM/IGZozTap60QZ9vKcGqqfDLGmPwi797zGYrV1QzpalCWZ7pr3HJz9K/yS5m99tvPm1zpIMXr1GDm63FlhScbbOx8k412th0e/6iSVfXmFttme2zJX/UiBNj58mZMF0rwT/AwvgdmuBJefEhRmJXtx7JpZcAlYDCzyi273l0qTl4gWEH9GSb0ighp37bb6gghVLLsEpq3n3rcMKD4sTbhdk2TheM3th2Z+y0V0zc5lxNXmTyVKlkj44yO349X1XcMKSDuGZ1b/uWpBTwJJLuGa10s+KcNU1ToKXwlTvnY7KkRto4sPN+NmjTaW/Y5wI1mn/geKlyYUz3ZCaqK46wSFdkDH9nEh3fJO3Zn0F/+YSiROWdIkgyaNiSa6FJZdwxWpmvc4qX296lgsrSk5CJTyNzmw+P+Z1sjeJbXgT3AjWsQdzefruMqI7tdW6r6VXvMFcRd6wTIRaZz0fvt6EG5Z8BrDkEl62Wix935rXrj0344KAjKFSpmerP4d3FCoQkAfCjWBth646yc/6388ms1gZXy+FNFUNBGR7sOQSXrRaYKaGDMJ7igE/4bqAvK4FBAF5IBwJ1rSfK6kwK8K3Yd8skmUHL44CqXX1M7UGl6p+Tcxi8F481u2WfhaaZbWzLAjioh0vMD2uSyY0q2er6tZul55CT68emfRDm7srJHI5eXkKkjAblrwvkzA51TlHLPkEYMklvGg1vfqWoulzZj/uJ6zvvLxstYd3G42DJ1lQ9gGmmzs83UoZJJlZkH6YxCzJdChlY6h4SZb5fRwegrhLqW8y6UI0GyPHy+JTpUm6G+sFJGizB1ybfmc4Eqy5afnQC1+bwV56XFdX5KjMfKvDPN3DIDK9RL1u7jattrk+Ka7G9ezNetlVLe5oJhfI9fKlkayRXfvDbOTRYRz7Fg3NwPrKZobW4lLrsCOWfAKw5BJeslowzp7sRTIeuhS3rmMzoZ5eoXsaPVGVpGP0+DqY+nXrUzWnUi8gOq5UpXJ1EiqNxGR3msRhP3dmbebYV8jk/iYmNTLfTNWYFhSdCUzfAsE9rAVrOXu38EzpWk+dqpwuz81MFKrRPOref5QPjiWQfpHtKg3zVFouugioQzVduJ7kSA1XHmqfVON4WMh8mGrQdHdg2ju7OivSA/vnJRB1haEEooIi7+fGSLogiicRZtmSTweWXMLEarPYOq9sUuPy1SwXqkVET5kRq7m/0ryPnkiioh0T6PJxKRl0UaTXtDepdvEXZV38pZMSiIrbvDbz2ajgbbqt+nC1XkWUmzc7NXlB1kzfw4bI7KdJ05kAHYJdxlKwevk40YRg5sbXU9jVlWoiL/WSpcYV+0AwNa2RWeBaHajXo89SaQDXKfQnafSK8kpi9JR+auK8zEwmI+Pc2n5uWO3Nk9k3zHzlerVvvzGLbKuJnYp0PkKObG8tsOQSBqupCZaKseUuPu3WmOmCtO4YFZn3oDg1M5QpB49mLX9q0lhZNyKVKApkRmSJxlLPkWze/vRJnl7QPklncaiDVy9VH+g5LjPzBtd4kxtTkRlWJspUOl0m0BzAXSwFqxSi00lHqlimW9XrPfjmraNfs0G/6V8QkNDM0eq3Y0p6UYr5ag5912CZDL/viyLzf/fdC2Xi5JcFpF/gW89RllaX+sCT7a0FllzCYLWT2OpbFPRSQ5N1jFK9PkovL72DSwrT6ll/mA9fJxqa6fjVd/2Wpg+ozKyvw7zJhzHYfLPavCRUmon1z6fMLExy0WkmAK5iJ1i905XtjHRoGen+195uVgoy81ieC0h0Mk1G2WZ5ZRx32nkqmsjJsCaRLEFhVqE3avGigJjlKszJ6hUpOStYk+2tBZZcQm+109jKBqc2KwZXVSwrwEd6WeCxa6+fhakRkOkbUl8H1i95H5vlK8zlksyUYvpJkYv+Nk6Dd+hrKbUErWqGmUVR3zgi+hWbderbV80VC2+NnWCNtTdPs39xZ1n9er6k9TUBqWdjRuJ+5v3DqYBMpcrv32havQ5Yv87XVQEZwkxWzNNN8tGJX5PtrQWWXEJvtdPYavtlFztUoWOycHY00Yo2GqPnsoBMlrz3zcYgrwddMqEyxKQE3Sx4+7c1M85QWszrMTK9Xl8kKOeZALiKnWAtez8cSbrCR6CLrVlfApES9xUBaaYjo3xZId73LwhIOvHBvmisSzs3C0g+SylQbYknw7LI9tYCSy6ht5qJrbbf7o0jq6QOKZBuKEIyakWQypr07VUBafqwDMZG9CaLvWmo9DFZnpdA4n7lYFN7VcZRvzCL3EJ/cK4FpJ5kAo/NK8fF9HjtG9xbe+HW1EqeXnZbD2pLwSrv8LPGvc7hWtPe184GE14RkGLawGYy+eRiFVY0TU+rSaHd9CYB6RfNnqy94qUnC2mT7d3KzwIBSy5hsNppbI2z/uiRhLNX+l4rTJ5+TUCyaaK+qceScKgnodLHZGuu5c8O98wd9e9eZTMbtNu3TkanmcADU5oFpV6tIUH6k5kE/AW1fW11YVLBrmjYpDc2PdkK1jZqkvkd5qqfrH6/N+3mQZ6UVwUkNk5W1Jl545E+iodTAenbwKM6Nu4pgpXfJCDtoV/CXiKwPARZoU0/72C422yvmDVmXSUzIw7aq0ctsmR01rNBtuxnVPNotSTSYzz6n7oPop4g+TB2KZFRer3ZdC8SsxL8ZQHpg8BXHXxNnZSIRVtNQiU2sdYvOj8J3sAohBSEyjjvu3b1F2p0coEel2J0Lsjbh25EH5e0bV+bVP6TCWSXCEjZNOV5OkXcVNltCbiT7amFr81LR+d8YaBM31wXkLJWkzQEurG9UF16vYuN6J2XquP0C5hqvEvUkKW0vEFACq3QjVpx29ethepNoFSdEedZkzuW3JZyMqbyZx4s5r7kszMQkCW8bDWVheVeUvRL/Ha/WunH3s5KIKVMdvKygHTpKGHyU9W+0itCl5BaGFUdX0vvXB1rKlT0eKxp8Gaq5VCFXiOpdVdUdxFMLlTLbnlmXSaQBWqpyOahBaSWIZteXJtpkl7DT4pkSwTkUL7yrhzK9uohIyqNaqdj9/KLAmIGq1Ym91ejlswK9SemTKbNcflkkfufCkiia2n7ucnFmWN9pZOn5ZAlNyVRK5Eb175JQH7qswjIEl62ml7fVzmtrrsKjf+Gh0kbiKr2ks2HFwVEgkAN9ivHgR0nq80XY0yK3efBK3Gdmrj2zOL0k/72oZk0WM4Npgc/LFlfPA8mRa3ZX+TpX+VsYzANkTMDzAaKjgvcTgRkesTs6Flas4WVZjcQzPa8mMDBqWwvnFSFqHrDOhRzXBOQrhygGv/0aeoVq84uNaLrhT7S3CQva8nrhbt/KiCqb5cqi5dqoezauEBcDHfnpCU3pak6ww89by4LiGfi4Up2PvHfzpLzNcMCvS94KSpUuI2ZXp/QREBeioCHzptOuOZ/SaS8t+jN0EoAxIOR5BCJkGttICYImnCcyiRQcRr5+vjShIosqlNrjzgJXonrytxHq2N3mlUGqnSSmDCUxoM6f+wm9HQQyL6+XeU+ja5i7OyW6Raq+Ub1q5/CRT2r7rmMxixzMYuZKUa9HEzmnJGx0ZHXCbtpISh1XhVcSKuYzDFzyMZE9ZJLadjHrHrE/Qxo6pEUswprd7O9W5vQXspVTvFe/HHrhWaufrbbXUu+Kd2ra5DoWvVh5rC+stxMgKRyr0a8XGfnRp+rsfR4UBMypYUJin/6302DIlK1yLV3iMWR9dapUx98GXkdTRNq9e1oAVHn9w1uk92XouGR+Yn/nTjshWy5vCUoglPHv3iS93IZ8+rr7GkIl4/eju5Pa+jkrSg3xb/2IP3adMDkkzqNqIombSZ9b2b1Q68y0Ziyop4pJqrOBaTRfaulvSmXMqJW5HlazXSSssiU9mTGTNM1W89SFk0qg0wxdfaWuNNs7w3YqSVVQ2qp+xNcFhBV8VGbqoqXBCQ3QaGrLP/7WVA0TSX1yDqVwal7d9czA/bVKPNIzC6Ek+xW1ynT82h4ZHbqf67h5dPpH9uh9GZQDVC+GnSTSqlZz+ekNnqqFFLrjd2bVKunZPJkpEyQi6+bpt607WdlUoNDQ2+atp6dqWlVMVC91OlWqkIq7/0hLWlZriaTYiYyrM3TvRgi1d6r5sPJD3rev+CQ1LJHGsradNZ9Frdbi31Ych4fBzNwrDAFdZMdTwUkSFUPxlJ3hJsIiEZ7s6q8LA9eLbl859r/wywoGk/tUqkEepRapvpYlElt2lqVu2d6bssuobhUgaD6yRkB6UofqseDcvrZ7sxEQ3p4Dvbhf64TDs0/wlmdbb9chWTpUd87VA/71FO9mI2JOKbpMVc2RT+opkwkeHI5ZT4WexCQVl/BG8YftJMO1n1adX/OYaho8+pOLDxT9tHTNpl5b1ozqkeFXzlbyQK3W4tdWPIkPvphaonJhi8IyMGTPqRlXz97mApIbKp1k1b9ysw0Zv/jxJJ+39lBvFoPRTD94cXDS1NYSfRn2+pk1WG9gKjzzRDV6e76QjQ8MrvwP9cp0/kI6QvzyOg6U5nbIhreu1r5bCbzM5VmXe3J0I9JumZa13nf4F5A0jGxYGhxOksr6c+Zzfg/jnkIzKhT/TIn0ZLLbJdzcLu12IMlT+OjnyWsNJ58SUCEIK7GJu0hAW82Jb7fd6D7n35MNpp2lMnHUK+sxpP0PU+CSVL+ZDTDLJxmuy9FwyOzB/9zHjOPzNCzzLQODgJSXppHZjK5TDH2YFCOXc4UwswMHhdp/xo3r4D1Jy9p4zAE1Tgudb0X0hoj6nQ22oMOGX+8tU59fJlqfx41uN1a7MGSp/EhhV815Z2uFbosIH7W9O9fcwEp074EHiRmUiXZ+08nlrwgIO3o1Nk4PYZuAyknCc268UZnuy9FwyOzB/9zHv9k9q5J1lyqaZAuTkTmX9ooURLMFEJXYcmaW0V0o4AcfGkjzMthyaVJWgcTUcm0paavjpZC0vzWzIpfdTu5KG63Fnuw5Gl8TDNzFSiXBEREJwrrcwGJ+rFVpcrV6yK/TUDiqYAM82voeJEuKlH+koBMd1+KhkdmD/7nPs0QC0I5FowT04wweWUxefy8bDAVkPm0M7IlV03kF1oTDy8IiJqjPDUTW56mdTiZkkboy+wH00nrpIpXDdWmEf0t2IUlT+JD9QmJhNnAY/MhLzbdG1Ouu2idCkg4vBJlam6AXiV+KiAzp+5/6EhNqjSZjHI7FZDZbsVpNDwyu/A/51Ev/NN3knxY2a6RuOnXPPH0esL9PDL5+UaJkn4Ve1lIflomubUEIkl60t/E1BKMaZlzDuOaS2EXHv0UTb5RMN1wIpt0R+98dlXcbi12YcmT+CiHt5rCNICLa5kZWSNdXpAcOjirwkrGNyIzEdONJZDhomYBPPmh52Myo32zFwRktltHQ/g0/Xh34X8PQDAb3KJqnNRYyNYM+MvMuo3pdB6ZfuNscpl+FXrVB6WVPdIq0i99d5uAmE5ftZk5cJ6WOecwtAdmSu26K6h1I/1GAjdXQ7BMLyxvWNF7MswHt1uLnVhyFh/JUBjQk6eaiSpjGYTkV7p+1ayVeiIgXjp2QdTtF8GNbSCq6iuQi6fBsEyqnqZMd2sJ0hcEZLrbREM7i4ZHZif+92gk0maRVv289TLFRp7KpEi9Vqgq3DorUjMMYyIg6nBZhz7st2R67fr0NgHx1BDesNFOfpbWYZhRQFajb/TLmJq9SVUp6N7AMgi40MFaqGsX8wVZcbu12KMlm1EEpJNgqGfIUE2FRV3piZHrzgHV3AgnAqKGh0vlV6hHK+mW9sMtAqKUpnNq3ZivZEq1akg3q07Giix6sRF9tju/EA2PzB797xHop+PtWySKcZj30EwR6NGwzVkVVn94MbQwyhRhVdreWIWlGwz1sl1naR2GwNLtgamurhLNk/GK4+1H0he/HhPowe3WYoeWnPYfz1WJV82CoJrg1FQjVaOH4cbijvlpG8i0d4eePDONbxSQmVOrobWqk2Em8RJNErrQiD7dfSkaHpkd+t+DELRZ5o9u5seZGXzkjVO+nW/0zSndHjOhvdkSxJlv1qjy/an3lvIzMKtXDenItP2Hy2mpc8zJRTVMS6ZueJxEX93asCfJ2vkfh9utxQ4tWU4cONCe6BkH82NvcM5WubD4czC6vd8j7t4FRWuO9/3/+cfsEucf3efUw8u4c/BAx0vZeXipD5tccQinYNxtfti24Wrs0P9gRUI1ZcP94HZrgSXXAksuAavBa/CyRR0Scbu1wJJrgSWXgNXgNWTRoqVzHHO7eaXeSHDjsvRnRgg3W/LBMUs+MFhyCa+22nmMSb3fUEu+FdnTdIx7KKJo0dIrjgXrS73yb1xYzh+G7QznbeaMjlnygcGSS3i11c5jTHoe+NN5LjZApvyAR8GxYH2lgESnvlcuahhahGOWfGCw5BKeRUCS3SxC/BQ4FqyvFJDM4ruLY5Z8YLDkEp5GQLJnmWB/F7gTrKVfTgTkpDFEnNubiEswHKC+eLqrcznZ2B0el6a7tN71xn7pjiUfHSy5hJesJm0Ynu7J77fj9mk0HTxvIiBBHyqjgASz0JtE0jyqpNHEC04ubnaVkzNlezm7g2k8D/cEruNKsMpQyMbMLyGr96bTNh21tLVaxDQ3g2PqcQxYVam14rN+eFljFtZWh/tqSW31U4/0bN7UI12x5OODJZfwktU6AVALOlaxDOk0g41lZbA6NPm5zHAWGwEJZY5iM5lZNpzfh95k96Et0uH7wZwgy9WbyNWjpiOzDLEfzZbv9oou0cwMZ5Mx0rq62cwLlUu405ruOo4Eq5p/pU7V5Bd68cX5avEyX2sqM8rI1BmtPlo3kMsq11GiZ21phtXm6yqNPCMgalf61utfO2LJJwBLLuGKgDRVlHaZdaU+9MzhKmdvzHRHejJ9Oeogk5alkZmyvxeQWqJNQm+6u0z19zFMI5Vo3U/KoVZcSfu162VXE09vSh2ZSkLqe2Tic5gDKkrnK7aCi1gK1jJp6mx8vehcsU50KcQX7+r2qSkqhsJwJuUHs7L2eLSaDKmq9Bj8Qrw2SM284jJxtxGQQl51kvpNp+4m21sLLLmEawISHMpIFwX0fJJJl3GXquCRykL1VVe6SGqZVcbMkVyM8/opAfH70JvtlpFnXjOZ3j+SaZcCPXNm96sLOxWmkd4VzmbhNxdVdxBWqS9CpuPZN1NwqnqDJ5kq+XmxFKwyf9GYncdmDno91bwZzDFZjKVf2rqUj9goi/4c1uj2TBJ6tXk9w74IiGembPJmq7k8iSWfECy5hCsCory+1R969XqzAIWeP9z8MDOE69aOdpxNzJxv5tyf75baq0lrZTTEcSontuZgT6ZQnt+UFC4CLUieqbgelgTQCnXwqcJyHTvBGuh59Nr+d2i8q1+1K5NZkqJx7dR+mSxx6dwc7Zmj2zFdP5nPcywC0o6LaL/h1Ktke2uBJZdwRUB0WVx3pjIrqujmQDWFsdcHUDr0wvL8yLzJZeOqrPlQn9Tvjqs0nPdMiUyYJuqczFxRr99i1Ga8KV2bVQ+b1brIejJNX0I2pw39EbATrPGwhLyml4rArCQ/XYdXuLCsw0G5fDztuGXWuz4TkGGSl/wtu5iT7a0FllzCFQGZfBzMmo49+bhst158KIj1pN9TAZHd2dluNffy0LguzOJ4iLZGB202vyl9mj7I05PsjwIi8yanBRVYzmO1BDJUKM0cL+hXipC1IjQnAmK2y0JEvVZ4sth8ll8SEL2WCwLyGGDJJdwnINEQYScCEqlW8jx5SUCmu7uSRlOdNKJP4rjoXxAlXq8JiFq2r47CbCIgB7+YvUGCo1gKVr0ww1DDeVqFdTYecCYguRGEvgrLN7uK4HC62rxvGga1t9ZUYT0CWHIJdwhIMK32nVdhJXohofIFAZntFlRlwqQRfYjjYKh2PpgqrBMB0W+P0nAeDuumHqZjiduURnTnsRSsQZ5Wk3Eep43oWiDasRZ0JiCnjeh6IQqzsT4XEBrRHwssuYQ7BKRvNz+0usu7FOg9ed83y9lnLwjIbLcn0dRO3vfGRvTKrKN96D/PBKRvRM+UHLXqRzEKSCB9KL101nACDmItWMtp85teyL3vxpvo1d/9WS+siYB0R0f+pBuv1grpJaJ6G54JiGrb63ycbrwPApZcwj0CkvVdslTOnUsnd9WEHQ1tEvULAjLdHeg+Kf6kt31U9ZGp9tSylGoXdtOlvoebkovqjsTSSCKjuw4mdGvRl4ASiPM4EqyxXnm+HlvQimZaAzpfmTQx69SbMYO+OaRqunLNhV5Yes34etrt63kt+QRgySXcIyBq5F6aN7qzuwyzbcxAwkANLa+r9AUBUe2Tw+5Y/Wiqsa+kqsIykakKEDLetx+/eyYgtVy0j2eT6sGErhq8Eka0gbiPK8Gq6rTmU5lU6WS56rmASO1oP0dCrxWBbnULLwiImVOhftPXGVcs+fhgySXcIyBm7hATYaUaRJiGOsZi6VrlvdSIPt19UDE764bVnaCmOqlNTbGecUjaN84FRGYeMudKQs20DSSTpAu68rqOO8FaqkXlx9kQ45nvnK4Uf/CStp/IZxhtVLZtOV12W23qJ1MM2uSNndEdSz46WHIJVydTHKc17Gc3DPxs8j6VtJMYyzwTQLMFpc539z9GRCXadtzgJX3YebNpF/UMjcm4qY0Dc6Uh6bg9gPMQrGuBJdcCSy7BBatFt3Zz3HqOeHgrXHC75wBLrgWWXIILVkNAdocLbvccYMm1wJJLcMFqCMjucMHtngMsuRZYcgkuWC2Mbhxo5UX0r3oOXHC75+DjB9t38Cx8fG/7Dh4RIhksgNutxS/HX2zfwpPwy/F3tm/hASGSwQK43Wq8/277Dp6FD1jyfohksAButxrvjh9t38KT8O74yfYtPB5EMlgAt1uPj8cfn77Zvomn4Pvx8xcseR9EMlgAt1uRL78eYV3+2V//wfZTfRCIZLAAbrcq336Ddfhf/lTxz//Fvzz+C9sP9TEgksECuB24zT8//rXtW3gIiGSwAG4HjvOvjtRi3QCRDBbA7cB1/uXf2L6DR4BIBgvgduA6f/PPbN/BI0AkgwVwO3Cdf360fQePwIuRXA04sD7sz6dbdOI24VYQEHCdP0VAbuBtBOTm6RFvRAvItVQRkIcCAQHXQUBu4YqAvCJHvnmC9rvSu5YqAvJQICDgOgjILSAgYAEEBFwHAbmFmwQkripZo7ypGsnG/Tyts9LsDJuqinTOHlV+1nQ/dNVXt6EMoyotYnWoX1VlkQ6JZlXWdoeqHVFaFa3eGiRFVeft5Pp6DSklHRdTVUcUVROX5nCvS6wuzILqbV5Xw2HgEggIuA4Ccgu3lUBEOVQW7qnMvJCcPA3VnrLR+Xqk8umoytXXIavvdxYHUYJm0qCSVZE69HBI9CGp7Kj1j/ZwTUD6VHPZH+kr6MNjk1iiLzFcHBwDAQHXQUBuYYzkIMu9yY6ZgHhpl4MHlalI6vLuIOnyepVNd4oR+SoXD/WuJim9obKp6bLyMsgkqU4J0twP+vJAt7GOg0AlGiVlXFd1qcSk05E4rdLygoBcTFVJjr4Z9cvrrpEFWZdA0OlMd8+l14lNbNvGcAYCAq6DgNzCEMnxydt6pwWRkOi9aVBIMUSpRKs/a8myY3N2oDalWiBMVu+FIkm1+uWbIoMhkxMOB5OoJ3IUySFB1l4VkDY3qcZSfpHDGvnsElPX76Qjl1uSO0sC2zaGMxAQcB0E5BaGSE6lvmcsgwy9ePvmjUbe60VAZItk0N1/IhnBRAAOJ83dqiggSjDNybMqMpfRXXMbdUxY1e14/ZcERBNIqlmVmuTU4bocpIpFjWhSRvuHoyAg4DoIyC30kZxM2hWErmjhCzrb7/JrUxcUmXKKp/LsUBcgTCljyOH7L2WbN0aEfKM7hkwfUfYFnVoJSidDVV0k5vovCsgk1f5mfHV4acpG6o856Lq2iDZ0J0FAwHUQkFvoI7mdFjcUJ/1iy7ovnkTmNV+OKPpaL9l6KiCBbl+PXhYQfxyvqEokgWqE18WQlwXEm6Q6aIo6fCjkmGtJ00i6bodiWAUEBFwHAbmFIZJ1B6ixlulEQMIqNYWNyHy2SlEy1RCiSC+VQCLVpm7E4rKAHPpCQ0/pF9VPGtFNqqH6VYw344/1YXF/LS9O+23gEggIuA4CcgtDJPudgqSTDktzAVEZdK2LHpGRmVDl0okpl0h91qmA9CWC+oqA1KbWTNc0BXqXyvMbfbX8TEBmqWamDSaX6/eJRVKcKdUeL6Ufr4MgIOA6CMgtTCK5nb2qzwSkTLvs3NebVJfdUgSnkB1Fl50Huv/VICC6O5Sns/r2ShtI3xsrSOvkENRSHAnkOrF07O3SHwVEp2oEJOlTNTejzsn0CJBEmmtC3UwfzTp/gRsgIOA6CMgtXBlImGeaQGXdSh8KydM7rajSMDL1XWq0Xq5aLlTOPQhIl4U3UqXVxEl0rRFdFCJKMj0OJOwSbrNaN4eocSOFGnw4JGxSbVSqjWmwySu5mVQERBKLOzFR9WqdfBVJXMw7f4EbICDgOgjILdw0G2+rWyr0+IqoCqUPlBl2aMZ7S+XX2M+2Fn3RLfNNeEVADp4ZV65SK3VDTC1ln1B1LE6DiYCU56ke1BhEJV+6dGQSa/o6tnm/AHAGBARcBwG5hRcjORsIDkmmG0f8LCslM2/zfHivD7Iij/WvJBuqvTwpuZRJkbelrzYH2Swn98dD2ywafnhxlA1jUZIsKQ9yWp9we5qqHFZ0l5cdalcYZW1/Z0metwdwEAQEXAcBuYX7I3ntmXZhhyAg4DoIyC0gIGABBARcBwG5BQQELICAgOsgILeAgIAFEBBwHQTkFohksABuB66DgNwCkQwWwO3AdRCQWyCSwQK4HbgOAnILRDJYALcD10FAboFIBgvgduA6CMgtEMlgAdwOXAcBuQUiGSyA24HrICC3QCSDBXA7cB0E5BaIZLAAbgeug4DcApEMFsDtwHUQkFsgksECuB24DgJyC0QyWAC3A9dBQG6BSAYL4HbgOgjILRDJYAHcDlwHAbkFIhksgNuB6yAgt0AkgwVwO3AdBOQWiGSwAG4HroOA3AKRDBbA7cB1EJBbIJLBArgduA4CcgtEMlgAtwPXQUBugUgGC+B24DoIyC0QyWAB3A5cBwG5BSIZLIDbgesgILdAJIMFcDtwHQTkFohksABuB66DgNwCkQwWwO3AdRCQWyCSwQK4HbgOAnILRDJYALcD10FAboFIBgvgduA6CMgtEMlgAdwOXAcBuQUiGSyA24HrICC3QCSDBXA7cB0E5BaIZLAAbgeug4DcApEMFsDtwHUQkFsgksECuB24DgJyC0QyWAC3A9dBQG6BSAYL4HbgOgjILRDJYAHcDlwHAbkFIhksgNuB6yAgt0AkgwVwO3AdBOQWiGSwAG4HroOA3AKRDBbA7cB1EJBbIJLBArgduA4CcgtEMlgAtwPXQUBugUgGC+B24DoIyC0QyWAB3A5cBwG5BSIZLIDbgesgILdAJIMFcDtwHQTkFohksABuB66DgNwCkQwWwO3AdRCQWyCSwQK4HbgOAnILRDJYALcD10FAboFIBgvgduA6CMgtEMlgAdwOXAcBuQUiGSyA24HrICC3QCSDBXA7cB0E5BaIZLAAbgeug4DcApEMFsDtwHUQkFsgksECuB24DgJyC0QyWAC3A5f5647/9S/V///K9q04DpEMFsDtwGX+t2PPX9q+FcchksECuB24zF8PAvIH27fiOEQyWAC3A5f5Q68f/9r2nbgOkQwWwO3Aaf61EZC/sX0jrkMkgwVwO3Cav6EG6zaIZLAAbgdO8wdqsG6DSAYL4HbgNv+aGqybIJLBArgduM3fUIN1E0QyWAC3A7f5AzVYN0EkgwVwO3Cc31ODdQtEMlgAtwPH+UtqsG6BSAYL4HbgOH+gBusWiGSwAG4HrvP74/9u+xYeACIZLIDbgev85fH/sH0LDwCRDBbA7cB1/vAXtu/gESCSwQK43e743bv3R3hD3n/+8m37x0okgwVwu73x2wfbGewO+Lq9ghDJYAHcbmd8Oh4/vPvyG7wd37/aUBAiGSyA2+2MD8cPv9i+h6enU+l3W1+TSAYL4Hb74pfjEf14e349ftj6kkQyWAC32xffj+9t38IesKDTRDJYALfbFz+On23fwi74cPy48RWJZLAAbrcvfhy/276FXbC9nYlksAButy8QkG1AQGAX4Hb7AgHZBgQEdgFuty8QkG1AQGAX4Hb7AgHZBgQEdgFuty8QkG1AQGAX4Hb7AgHZBgQEdgFuty8QkG1AQGAX4Hb7AgHZBgQEdgFuty8QkG1AQGAX4Hb7AgHZBgQEdgFuty8QkG1AQGAX4Hb7AgHZBgQEdgFuty8QkG1AQGAX4Hb7AgHZBgQEdgFuty8QkG1AQGAX4Hb7AgHZBgQEdgFuty8QkG1AQGAX4Hb7AgHZBgQEdgFuty8QkG1AQGAX4Hb7AgHZBgQEdgFuty8QkG1AQGAX4Hb7AgHZBgQEdgFuty8QkG1AQGAX4Hb7AgHZBgQEdgFuty8QkG1AQGAX4Hb7AgHZBgQEdgFuty8QkG1AQGAX4Hb7AgHZBgQEdgFuty8QkG1AQGAX4Hb7AgHZBgQEdgFuty8QkG1AQGAX4Hb7AgHZBgQEdgFuty8QkG1AQGAX4Hb7AgHZBgQEdgFuty8QkG1AQGAX4Hb7AgHZBgQEdgFuty8QkG1AQGAX4Hb7AgHZBgQEdgFuty8QkG1AQGAX4Hb7AgHZBgQEdgFuty8QkG1AQGAX4Hb7AgHZBgQEdgFuty8QkG1AQGAX4Hb7AgHZBgQEdgFuty8QkG1AQGAX4Hb7AgHZBgQEdgFuty+2ydhKXxGskVRwOZlAXcBbcOJGICCwC3C7fbFNxuZXQhO/Pg/PquzyZn2FIrjzxI1AQGAX4Hb7YjMBiaIo7XL4VyvIiwKSRlHTXSCN7ztxIxAQ2AW43b7YTEDUh9e8PhN/UUAic4XKv+vEjUBAYBfgdvtiUwE5JFUtn0GStaV8yZKDFydlf2AQt8N3LzstrvixN+pAO6sPMwJyOBRVo1NqszGp2Yl+PF4uia+2m6wHAgK7ALfbF1YEpJD2ilx2RGH/vfuVq++FfG8j9XVamkhUDVUTig6USa12t8POQUACXQTJqzHZ8xNzkY1Aba/qTdrWERDYBbjdvthUQMqmCg8qc0/zuBORRO1IqybrMvK22x5XVRrmqTmmqrMurw+HNPotogPdZx6mVTWUHwYBOURVLE0iRdwlpRpEwumJ3aUidWIiKdZxtzO67W94BDtPIZLBArjdvthMQLIs6zQjKrsX/7xW+X6uxMHX2XquygplJx2lbPLUfyqLj8dW90AfmclHossNkSmtHKYCkql0w7rtN56cmHblkzKs6lLt6O7Dj/ItiiAICOwC3G5fbNqNt0qTcZvk7r5WiLZK1X+VNE54pdqpG0vSoeU7Vod0iA5EenNrasYOcwEZihSx2h+bg8yJUqsl9VxlVTXlYSMQENgFuN2+2ExAfN9PCtPAUbZhVFdaQHSTt8rkJzn/oTB1V7lpxlB7dWlDtCOtmkgxFlBOSiBdypn06h1PLNSJdaUlrFaVW6pSLGyfyc5TiGSwAG63L7ZtRNcFjlYKI5EWEJ3v65x+bPCITEY/bdrQZRFpC68G+lb2kzYQT3YWKtnCnJjpE/UJsrGUlhGp7HoSO08hksECuN2+2FZAdO5eS/cp/1xAmuGEwpQ8ikFUeoVodEGiPbnCSS+sqLtEqSqpzk7U4wz7kogfdlK2RT0WAgK7ALfbFxYEJNY5en4qIL5pA1FDQcY2kH5geWI6cpmmDF0VNg7imIwDiaRNpezPSXSysxO1ygSBPiY5vD0ICOwC3G5fbCogQaYy81bEIUhPBaTsSiZSwZV60nWqPAT5WDwoU7U3KExnKiUAfj2WWYyAtHokeiDnBbUkKyeWoZzYJa7SLdQtxKorlroP/86/xl07TyGSwQK43b7Yci6s2gzt6/L9UDVwnwiItI3k3Q5V6OikJlXjDceZrTLdqKH7ZUVVVReTJhA9F5a6QNoeZH+dF92xVX9iak4sTLrqxEYdlI5dgR/fzlOIZLAAbrcvtu3GW2eqQOEr9ajjMwHpSiipOka2BHmX54fTIRpe3mX+uZmRRMavN2Plk5mNN8p1icWTeRU9k6walt6f6Of9bZiDNhkGgoDAPsDt9sWW64GMLRZBG3TbvIP+r8PvixLteFDZnrZuB+1kWQ+/neb8wemCI0HijckGXVLDiUEyucRGU2EhILAPcLt9wYqE24CAwC7A7fYFArINCAjsAtxuXyAg24CAwC7A7fYFArINCAjsgu9fbd8BvCW/fvo2+42AbAMCArvgt+O31ycCznI8/sUffZn8RkC2AQGBfXD8ZPsO4A05Kv7s//yl/42AbAMCAvvgx9dfXp8IuMrR8G/+rX7MCMg2bG/ndz9s/82wR759/fDl9amAo/QCcvz98W9//B0CshWndv7dx3dvfMWvb30BgEt8+/X44ce77/CUHCf8reOffPq/EJBNmAnIt09/eTz+3297wd8df7P9N8NO6d6OfsBzgoDYYSIgn/68K/69uYB8+mD7TwaAZ4MqLDv0dv7yR39hHsDbCsgvH361/ScDwLNBI7odxM6//Ns/G8t/byognz58pTs+AKwM3Xjt8OP4/7z7N9P6w+PXN2vnevfjw5EWdABYHQYS2uFcQP7ft2vo+v6J4gcArM//x1QmVti4CgsA4O1BQLZh60Z0AIA3BwHZhs278QIAvDUIyDZsPpAQAOCtQUC24Xwqk39r+5YAAF4HArIN2BkAng4ytm3AzgDwdJCxbQN2BoCng4xtG7AzADwdZGzbgJ0B4OkgY9sG7AwATwcZ2zZgZwB4OsjYtgE7A8DTQca2DdgZAJ4OMrZtwM4A8HSQsW0DdgaAp4OMbRuwMwA8HWRs24CdAeDpIGPbBuwMAE8HGds2YGcAeDrI2LYBOwPA00HGtg3YGQCeDjK2bcDOAPB0kLFtA3YGgKeDjG0bsDMAPB1kbNuAnQHg6SBj2wbsDABPBxnbNmBnAHg6yNi2ATsDwNNBxrYN2BkAng4ytm3AzgDwdJCxbQN2BoCng4xtE74dj59s3wMAwLp8Pn61fQt74Mvx+M32PQAArEuXs/1i+x52wDt0GgCejw/HD7+zfQ9Pz8fj8Z3tewAAWJtfjscPv35EQ96OXz79OB6/YmEAeD4+HeHN+UoLCAA8I798/NV2/vrk/EoPLAB4Xn6DN4PKKwAAAAAAAAAAAAAAAAAAAAAAAAAAAAAAAAAAAAAAAAAAAAAAAAAAAAAAAAAAAAAAAAAAAAAAAAAAAAAAAAAAAAAAAAAAAAAAAAAAAAAAAAAAAAAAAAAAAAAAAAAAAAAAAAAAAAAAAAAAAAAAAAAAAAAAAAAAAAAAAIBn4f8HnroNvMRjs94AAAAldEVYdGRhdGU6Y3JlYXRlADIwMjUtMTAtMTlUMTQ6NDc6MzArMDA6MDD5k4sRAAAAJXRFWHRkYXRlOm1vZGlmeQAyMDI1LTEwLTE5VDE0OjQ3OjMwKzAwOjAwiM4zrQAAACh0RVh0ZGF0ZTp0aW1lc3RhbXAAMjAyNS0xMC0xOVQxNDo0NzozMCswMDowMN/bEnIAAAAASUVORK5CYII=;" vertex="1" parent="1">
          <mxGeometry x="-359" y="370" width="1600" height="843" as="geometry" />
        </mxCell>
      </root>
    </mxGraphModel>
  </diagram>
</mxfile>
